<svg xmlns="http://www.w3.org/2000/svg" xmlns:xlink="http://www.w3.org/1999/xlink" width="44" zoomAndPan="magnify" viewBox="0 0 33 30.000001" height="40" preserveAspectRatio="xMidYMid meet" version="1.0"><defs><filter x="0%" y="0%" width="100%" height="100%" id="de64338b10"><feColorMatrix values="0 0 0 0 1 0 0 0 0 1 0 0 0 0 1 0 0 0 1 0" color-interpolation-filters="sRGB"/></filter><clipPath id="2ea49f626c"><path d="M 4.691406 1.902344 L 28.640625 1.902344 L 28.640625 27.304688 L 4.691406 27.304688 Z M 4.691406 1.902344 " clip-rule="nonzero"/></clipPath><clipPath id="7f731ce924"><path d="M 18.839844 5.675781 C 18.894531 5.675781 18.945312 5.652344 18.984375 5.617188 L 20.671875 3.941406 C 20.707031 3.902344 20.730469 3.851562 20.730469 3.796875 C 20.730469 3.746094 20.707031 3.691406 20.671875 3.65625 L 18.984375 1.980469 C 18.90625 1.90625 18.773438 1.90625 18.695312 1.980469 L 17.007812 3.65625 C 16.929688 3.734375 16.929688 3.863281 17.007812 3.941406 L 18.695312 5.617188 C 18.734375 5.652344 18.785156 5.675781 18.839844 5.675781 Z M 18.839844 2.40625 L 20.242188 3.796875 L 18.839844 5.1875 L 17.4375 3.796875 Z M 15.136719 3.976562 C 15.082031 3.90625 14.988281 3.878906 14.90625 3.910156 C 14.824219 3.9375 14.769531 4.015625 14.769531 4.105469 C 14.773438 4.152344 14.949219 8.710938 18.546875 9.082031 C 18.828125 9.109375 19.101562 9.125 19.367188 9.125 C 22.375 9.125 24.0625 7.367188 24.136719 7.285156 C 24.203125 7.214844 24.210938 7.105469 24.152344 7.027344 L 22.882812 5.351562 C 22.816406 5.265625 22.699219 5.246094 22.609375 5.304688 C 21.183594 6.238281 19.835938 6.597656 18.601562 6.378906 C 17.367188 6.15625 16.203125 5.351562 15.136719 3.976562 Z M 22.671875 5.746094 L 23.71875 7.128906 C 23.246094 7.550781 21.429688 8.976562 18.585938 8.679688 C 16.089844 8.421875 15.417969 5.941406 15.242188 4.738281 C 16.257812 5.882812 17.359375 6.566406 18.53125 6.773438 C 19.820312 7.003906 21.214844 6.65625 22.671875 5.746094 Z M 23.164062 20.84375 C 21.433594 20.738281 20.390625 18.671875 20.378906 18.648438 C 20.339844 18.566406 20.25 18.523438 20.160156 18.539062 C 20.070312 18.558594 20.003906 18.632812 19.996094 18.722656 C 19.851562 20.507812 20.257812 21.9375 21.167969 22.863281 C 21.972656 23.679688 23.15625 24.070312 24.59375 23.988281 C 27.570312 23.820312 28.628906 20.335938 28.628906 17.128906 C 28.628906 14.414062 27.640625 9.75 23.933594 9.503906 C 21.621094 9.347656 20.300781 11.007812 19.132812 12.472656 C 18.449219 13.328125 17.804688 14.136719 17.070312 14.402344 C 15.605469 14.933594 14.542969 14.441406 14.105469 14.164062 C 14.644531 13.78125 15.871094 12.742188 16.027344 11.1875 C 16.207031 9.351562 15.664062 6.980469 12.03125 6.101562 C 8.546875 5.257812 5.898438 8.402344 5.789062 8.539062 C 5.738281 8.597656 5.726562 8.683594 5.761719 8.757812 L 7.242188 11.667969 C 7.273438 11.722656 7.328125 11.765625 7.390625 11.773438 C 7.453125 11.785156 7.519531 11.765625 7.566406 11.71875 C 7.582031 11.703125 9.257812 10.085938 11.074219 10.085938 C 12.222656 10.085938 13.308594 10.617188 13.652344 11.347656 C 13.855469 11.78125 13.765625 12.246094 13.386719 12.699219 C 12.21875 14.09375 9.207031 13.59375 9.179688 13.585938 C 9.117188 13.578125 9.050781 13.59375 9.003906 13.636719 C 8.957031 13.683594 8.933594 13.742188 8.941406 13.808594 L 9.253906 16.714844 C 9.261719 16.785156 9.304688 16.84375 9.371094 16.875 C 9.433594 16.902344 9.507812 16.898438 9.566406 16.859375 C 9.585938 16.851562 11.183594 15.820312 12.695312 16.277344 C 14.238281 16.746094 15.492188 18.371094 15.492188 19.902344 C 15.492188 21.640625 14.425781 23.597656 11.425781 23.886719 C 8.367188 24.179688 5.984375 21.570312 5.367188 17.234375 C 5.351562 17.132812 5.265625 17.058594 5.167969 17.058594 C 5.164062 17.058594 5.164062 17.058594 5.160156 17.058594 C 5.058594 17.0625 4.972656 17.140625 4.964844 17.242188 C 4.695312 20.324219 5.609375 23.324219 7.410156 25.273438 C 8.636719 26.601562 10.15625 27.304688 11.804688 27.304688 C 15.992188 27.304688 18.445312 23.5625 18.613281 20.859375 C 18.730469 18.933594 17.691406 17.078125 17.171875 16.273438 C 17.949219 16.394531 19.5 16.519531 20.816406 15.914062 C 21.6875 15.515625 22.121094 14.628906 22.539062 13.769531 C 22.992188 12.835938 23.386719 12.03125 24.242188 12.03125 C 24.257812 12.03125 24.273438 12.03125 24.292969 12.03125 C 24.808594 12.050781 25.265625 12.300781 25.652344 12.773438 C 26.464844 13.773438 26.800781 15.625 26.484375 17.382812 C 26.039062 19.855469 24.980469 20.957031 23.164062 20.84375 Z M 25.96875 12.519531 C 25.511719 11.960938 24.9375 11.652344 24.308594 11.628906 C 23.144531 11.585938 22.65625 12.605469 22.175781 13.59375 C 21.789062 14.390625 21.386719 15.210938 20.648438 15.550781 C 18.972656 16.316406 16.796875 15.792969 16.773438 15.789062 C 16.691406 15.769531 16.601562 15.804688 16.554688 15.875 C 16.507812 15.945312 16.511719 16.039062 16.5625 16.105469 C 16.582031 16.128906 18.351562 18.480469 18.207031 20.835938 C 18.050781 23.378906 15.742188 26.902344 11.804688 26.902344 C 10.273438 26.902344 8.855469 26.242188 7.707031 25 C 6.339844 23.523438 5.507812 21.402344 5.351562 19.109375 C 6.351562 22.570312 8.636719 24.558594 11.46875 24.289062 C 14.738281 23.972656 15.898438 21.730469 15.898438 19.902344 C 15.898438 18.207031 14.515625 16.410156 12.8125 15.894531 C 11.5 15.496094 10.1875 16.0625 9.625 16.363281 L 9.375 14.019531 C 10.179688 14.121094 12.585938 14.285156 13.699219 12.953125 C 14.179688 12.382812 14.292969 11.75 14.019531 11.175781 C 13.609375 10.3125 12.371094 9.683594 11.074219 9.683594 C 9.457031 9.683594 8.007812 10.796875 7.484375 11.246094 L 6.1875 8.695312 C 6.660156 8.175781 9.035156 5.789062 11.9375 6.492188 C 14.625 7.144531 15.863281 8.710938 15.621094 11.148438 C 15.449219 12.902344 13.664062 13.972656 13.648438 13.984375 C 13.589844 14.015625 13.554688 14.074219 13.546875 14.136719 C 13.542969 14.203125 13.566406 14.265625 13.617188 14.308594 C 13.675781 14.359375 15.070312 15.558594 17.210938 14.78125 C 18.050781 14.476562 18.734375 13.625 19.453125 12.722656 C 20.554688 11.335938 21.808594 9.765625 23.90625 9.90625 C 27.316406 10.132812 28.222656 14.554688 28.222656 17.128906 C 28.222656 18.171875 28.046875 23.390625 24.570312 23.585938 C 23.234375 23.660156 22.1875 23.324219 21.460938 22.582031 C 20.746094 21.859375 20.375 20.773438 20.375 19.417969 C 20.851562 20.109375 21.796875 21.164062 23.136719 21.246094 C 25.179688 21.371094 26.402344 20.128906 26.882812 17.453125 C 27.222656 15.558594 26.863281 13.625 25.96875 12.519531 Z M 25.96875 12.519531 " clip-rule="nonzero"/></clipPath><clipPath id="89b1a76bd3"><path d="M 0.53125 0 L 23 0 L 23 24 L 0.53125 24 Z M 0.53125 0 " clip-rule="nonzero"/></clipPath><mask id="7fce2f8edf"><g filter="url(#de64338b10)"><rect x="-3.3" width="39.6" fill="#000000" y="-3" height="36.000001" fill-opacity="0.4196"/></g></mask><clipPath id="045a18aed5"><path d="M 2.621094 0 L 13.507812 0 L 13.507812 7.402344 L 2.621094 7.402344 Z M 2.621094 0 " clip-rule="nonzero"/></clipPath><clipPath id="421bf80454"><rect x="0" width="23" y="0" height="24"/></clipPath><clipPath id="cd7e8f5638"><path d="M 0.53125 4 L 26 4 L 26 29.03125 L 0.53125 29.03125 Z M 0.53125 4 " clip-rule="nonzero"/></clipPath><mask id="788a40ce6f"><g filter="url(#de64338b10)"><rect x="-3.3" width="39.6" fill="#000000" y="-3" height="36.000001" fill-opacity="0.4196"/></g></mask><clipPath id="542c8b4bf9"><path d="M 0.53125 16 L 11 16 L 11 25.03125 L 0.53125 25.03125 Z M 0.53125 16 " clip-rule="nonzero"/></clipPath><clipPath id="81c3d9e37e"><path d="M 2.558594 30.101562 L -3.082031 20.789062 L 4.367188 16.277344 L 10.007812 25.589844 Z M 2.558594 30.101562 " clip-rule="nonzero"/></clipPath><clipPath id="ab18bc0957"><path d="M 4.734375 33.695312 L -7.675781 13.207031 L 12.808594 0.796875 L 25.21875 21.285156 Z M 4.734375 33.695312 " clip-rule="nonzero"/></clipPath><clipPath id="9cd62b92fb"><path d="M 4.734375 33.695312 L -7.675781 13.207031 L 12.808594 0.796875 L 25.21875 21.285156 Z M 4.734375 33.695312 " clip-rule="nonzero"/></clipPath><clipPath id="9e1d279909"><rect x="0" width="26" y="0" height="26"/></clipPath><clipPath id="304509e6d9"><path d="M 7 0 L 32.464844 0 L 32.464844 29.03125 L 7 29.03125 Z M 7 0 " clip-rule="nonzero"/></clipPath><mask id="2005d5a61b"><g filter="url(#de64338b10)"><rect x="-3.3" width="39.6" fill="#000000" y="-3" height="36.000001" fill-opacity="0.4196"/></g></mask><clipPath id="6f194c8fc0"><path d="M 16 1 L 25.464844 1 L 25.464844 16 L 16 16 Z M 16 1 " clip-rule="nonzero"/></clipPath><clipPath id="0c324ef637"><path d="M 24.460938 1.90625 L 28.652344 11.953125 L 20.617188 15.308594 L 16.425781 5.257812 Z M 24.460938 1.90625 " clip-rule="nonzero"/></clipPath><clipPath id="aea7352c66"><path d="M 22.84375 -1.96875 L 32.066406 20.136719 L 9.960938 29.355469 L 0.738281 7.25 Z M 22.84375 -1.96875 " clip-rule="nonzero"/></clipPath><clipPath id="7859c4cbc9"><path d="M 22.84375 -1.96875 L 32.066406 20.136719 L 9.960938 29.355469 L 0.738281 7.25 Z M 22.84375 -1.96875 " clip-rule="nonzero"/></clipPath><clipPath id="7873456ab1"><rect x="0" width="26" y="0" height="30"/></clipPath></defs><g clip-path="url(#2ea49f626c)"><g clip-path="url(#7f731ce924)"><path fill="#e25d5d" d="M 4.695312 1.90625 L 4.695312 27.304688 L 28.628906 27.304688 L 28.628906 1.90625 Z M 4.695312 1.90625 " fill-opacity="1" fill-rule="nonzero"/></g></g><g clip-path="url(#89b1a76bd3)"><g mask="url(#7fce2f8edf)"><g transform="matrix(1, 0, 0, 1, 0.000000000000000111, 0.000000000000005692)"><g clip-path="url(#421bf80454)"><g clip-path="url(#045a18aed5)"><path fill="#e25d5d" d="M 10.335938 22.550781 C 10.3125 22.421875 10.238281 18.699219 10.234375 17.445312 L 10.230469 16.417969 L 10.386719 16.410156 C 10.507812 16.40625 10.550781 16.410156 10.558594 16.4375 C 10.566406 16.457031 10.558594 17.136719 10.546875 17.941406 C 10.53125 18.75 10.507812 20.070312 10.492188 20.871094 C 10.464844 22.457031 10.453125 22.625 10.390625 22.636719 C 10.359375 22.644531 10.34375 22.621094 10.332031 22.550781 Z M 3.234375 20.46875 C 3.234375 20.414062 3.332031 20.289062 4.839844 18.410156 C 5.230469 17.925781 5.734375 17.296875 5.964844 17.011719 C 6.886719 15.855469 7.167969 15.515625 7.199219 15.515625 C 7.242188 15.511719 7.484375 15.660156 7.484375 15.6875 C 7.484375 15.710938 7.125 16.128906 6.054688 17.347656 C 5.679688 17.773438 4.984375 18.566406 4.511719 19.101562 C 3.355469 20.421875 3.234375 20.550781 3.234375 20.46875 Z M 17.292969 20.261719 C 17.175781 20.132812 16.734375 19.636719 16.3125 19.152344 C 15.886719 18.667969 15.125 17.800781 14.617188 17.222656 C 13.429688 15.871094 13.304688 15.722656 13.304688 15.691406 C 13.304688 15.664062 13.535156 15.515625 13.574219 15.515625 C 13.609375 15.515625 13.835938 15.785156 15.035156 17.285156 C 15.550781 17.921875 16.253906 18.804688 16.605469 19.242188 C 17.277344 20.078125 17.550781 20.433594 17.550781 20.46875 C 17.550781 20.523438 17.492188 20.472656 17.292969 20.261719 Z M 7.585938 18.984375 C 7.585938 18.855469 8.660156 16.183594 8.710938 16.183594 C 8.769531 16.183594 9.003906 16.257812 9.003906 16.28125 C 9.003906 16.339844 7.796875 18.8125 7.710938 18.929688 C 7.664062 18.996094 7.585938 19.03125 7.585938 18.984375 Z M 12.863281 18.539062 C 12.574219 17.976562 11.785156 16.328125 11.785156 16.289062 C 11.785156 16.25 12.0625 16.171875 12.089844 16.199219 C 12.117188 16.226562 12.777344 17.839844 13.011719 18.449219 C 13.101562 18.683594 13.175781 18.90625 13.175781 18.941406 C 13.175781 19.09375 13.09375 18.988281 12.863281 18.539062 Z M 3.488281 16.492188 C 3.488281 16.414062 3.964844 15.988281 5.433594 14.753906 C 5.664062 14.558594 5.867188 14.402344 5.882812 14.402344 C 5.898438 14.402344 5.960938 14.449219 6.015625 14.503906 L 6.117188 14.609375 L 6.046875 14.679688 C 6.011719 14.71875 5.757812 14.917969 5.484375 15.125 C 5.214844 15.332031 4.84375 15.613281 4.664062 15.75 C 4.484375 15.890625 4.203125 16.097656 4.042969 16.210938 C 3.621094 16.515625 3.488281 16.582031 3.488281 16.492188 Z M 17.046875 16.425781 C 16.859375 16.308594 16.695312 16.1875 15.859375 15.554688 C 15.074219 14.960938 14.667969 14.644531 14.671875 14.625 C 14.671875 14.617188 14.714844 14.5625 14.769531 14.5 C 14.859375 14.402344 14.875 14.394531 14.925781 14.417969 C 14.957031 14.433594 15.171875 14.605469 15.402344 14.800781 C 15.632812 14.996094 16.03125 15.332031 16.289062 15.550781 C 16.804688 15.984375 17.300781 16.449219 17.300781 16.5 C 17.300781 16.554688 17.207031 16.53125 17.046875 16.425781 Z M -1.570312 15.816406 C -1.570312 15.78125 -1.125 15.546875 -0.40625 15.199219 C 0.535156 14.742188 1.773438 14.148438 2.234375 13.929688 C 2.457031 13.824219 3.019531 13.558594 3.488281 13.335938 C 4.472656 12.867188 4.851562 12.691406 4.875 12.691406 C 4.898438 12.691406 4.992188 12.9375 4.972656 12.953125 C 4.917969 13.011719 -0.789062 15.550781 -1.324219 15.757812 C -1.535156 15.839844 -1.570312 15.847656 -1.570312 15.816406 Z M 22.105469 15.757812 C 21.714844 15.605469 21.414062 15.472656 19.789062 14.75 C 17.320312 13.652344 15.820312 12.96875 15.8125 12.941406 C 15.800781 12.90625 15.882812 12.691406 15.910156 12.691406 C 15.945312 12.691406 18.535156 13.917969 20.449219 14.84375 C 21.765625 15.480469 22.359375 15.78125 22.359375 15.816406 C 22.359375 15.847656 22.304688 15.835938 22.105469 15.757812 Z M 16.28125 10.820312 C 16.269531 10.8125 16.261719 10.738281 16.261719 10.65625 L 16.261719 10.507812 L 17.304688 10.523438 C 18.441406 10.542969 19.640625 10.578125 19.914062 10.601562 C 20.070312 10.617188 20.085938 10.625 20.078125 10.671875 C 20.070312 10.722656 20.050781 10.726562 19.765625 10.742188 C 19.464844 10.757812 18.164062 10.796875 16.933594 10.824219 C 16.585938 10.832031 16.292969 10.832031 16.28125 10.820312 Z M 2.996094 10.808594 C 2.480469 10.796875 1.820312 10.777344 1.527344 10.761719 C 1.234375 10.75 0.929688 10.738281 0.851562 10.738281 C 0.757812 10.738281 0.707031 10.726562 0.699219 10.703125 C 0.667969 10.625 0.722656 10.609375 1.148438 10.585938 C 1.644531 10.5625 3.566406 10.515625 4.136719 10.515625 L 4.527344 10.515625 L 4.511719 10.824219 L 4.222656 10.828125 C 4.0625 10.828125 3.507812 10.820312 2.996094 10.808594 Z M 4.585938 8.523438 C 2.953125 7.75 0.515625 6.585938 -0.480469 6.097656 C -1.316406 5.691406 -1.578125 5.546875 -1.558594 5.511719 C -1.550781 5.5 -1.535156 5.492188 -1.527344 5.5 C -1.515625 5.503906 -1.367188 5.566406 -1.191406 5.632812 C -0.867188 5.761719 1.285156 6.710938 3.261719 7.601562 C 4.808594 8.296875 4.980469 8.378906 4.980469 8.40625 C 4.980469 8.433594 4.882812 8.660156 4.875 8.65625 C 4.871094 8.65625 4.742188 8.59375 4.589844 8.523438 Z M 15.847656 8.535156 C 15.824219 8.480469 15.808594 8.421875 15.808594 8.402344 C 15.808594 8.386719 15.925781 8.320312 16.066406 8.257812 C 16.210938 8.195312 16.734375 7.957031 17.238281 7.730469 C 18.402344 7.203125 21.382812 5.875 21.714844 5.738281 C 22.105469 5.574219 22.332031 5.492188 22.347656 5.515625 C 22.375 5.558594 21.820312 5.839844 19.574219 6.914062 C 17.652344 7.835938 15.957031 8.632812 15.921875 8.632812 C 15.902344 8.632812 15.871094 8.589844 15.847656 8.535156 Z M 14.773438 6.835938 C 14.714844 6.773438 14.675781 6.710938 14.683594 6.699219 C 14.703125 6.667969 15.109375 6.351562 15.808594 5.820312 C 16.878906 5.007812 17.242188 4.757812 17.289062 4.800781 C 17.324219 4.835938 17.191406 4.996094 16.949219 5.210938 C 16.460938 5.652344 14.917969 6.949219 14.890625 6.949219 C 14.882812 6.949219 14.828125 6.898438 14.773438 6.835938 Z M 5.664062 6.773438 C 5.144531 6.351562 3.933594 5.3125 3.722656 5.105469 C 3.371094 4.765625 3.410156 4.703125 3.8125 4.960938 C 4.191406 5.207031 6.09375 6.664062 6.09375 6.707031 C 6.09375 6.738281 5.921875 6.949219 5.894531 6.949219 C 5.886719 6.949219 5.78125 6.871094 5.664062 6.773438 Z M 6.757812 5.3125 C 6.523438 5.019531 6.039062 4.421875 5.683594 3.980469 C 5.332031 3.539062 4.6875 2.734375 4.257812 2.199219 C 3.40625 1.136719 3.21875 0.890625 3.246094 0.867188 C 3.273438 0.839844 3.449219 1.027344 4.132812 1.800781 C 4.496094 2.21875 5.121094 2.929688 5.523438 3.386719 C 6.433594 4.417969 7.0625 5.140625 7.304688 5.421875 C 7.515625 5.667969 7.515625 5.652344 7.304688 5.773438 L 7.1875 5.835938 L 6.761719 5.3125 Z M 13.4375 5.753906 C 13.363281 5.710938 13.304688 5.664062 13.304688 5.648438 C 13.304688 5.617188 13.761719 5.082031 14.898438 3.792969 C 15.292969 3.34375 15.929688 2.621094 16.3125 2.183594 C 17.226562 1.144531 17.484375 0.859375 17.523438 0.859375 C 17.589844 0.859375 17.523438 0.949219 16.40625 2.347656 C 13.839844 5.542969 13.617188 5.820312 13.585938 5.828125 C 13.574219 5.828125 13.507812 5.796875 13.4375 5.753906 Z M 8.222656 4.023438 C 7.679688 2.6875 7.566406 2.378906 7.605469 2.34375 C 7.621094 2.328125 7.644531 2.324219 7.660156 2.332031 C 7.734375 2.378906 9.023438 5.035156 8.988281 5.066406 C 8.960938 5.089844 8.769531 5.144531 8.714844 5.144531 C 8.6875 5.144531 8.550781 4.828125 8.222656 4.023438 Z M 11.890625 5.113281 C 11.832031 5.097656 11.785156 5.070312 11.785156 5.054688 C 11.785156 5.019531 12.667969 3.164062 12.886719 2.742188 C 13.089844 2.34375 13.175781 2.238281 13.175781 2.382812 C 13.175781 2.472656 12.96875 3.023438 12.503906 4.164062 C 12.0625 5.242188 12.113281 5.164062 11.890625 5.113281 Z M 10.226562 3.800781 C 10.257812 1.613281 10.320312 -1.132812 10.339844 -1.21875 C 10.351562 -1.269531 10.371094 -1.304688 10.394531 -1.304688 C 10.453125 -1.304688 10.464844 -1.101562 10.492188 0.476562 C 10.507812 1.28125 10.53125 2.59375 10.546875 3.394531 C 10.5625 4.195312 10.566406 4.867188 10.558594 4.886719 C 10.550781 4.910156 10.496094 4.921875 10.378906 4.921875 L 10.207031 4.921875 Z M 10.226562 3.800781 " fill-opacity="1" fill-rule="evenodd"/></g></g></g></g></g><g clip-path="url(#cd7e8f5638)"><g mask="url(#788a40ce6f)"><g transform="matrix(1, 0, 0, 1, 0.000000000000000111, 4)"><g clip-path="url(#9e1d279909)"><g clip-path="url(#542c8b4bf9)"><g clip-path="url(#81c3d9e37e)"><g clip-path="url(#ab18bc0957)"><g clip-path="url(#9cd62b92fb)"><path fill="#e25d5d" d="M 18.96875 11.144531 C 18.867188 11.230469 15.722656 13.222656 14.652344 13.875 L 13.777344 14.410156 L 13.6875 14.28125 C 13.621094 14.179688 13.605469 14.140625 13.621094 14.117188 C 13.632812 14.101562 14.21875 13.757812 14.917969 13.351562 C 15.617188 12.945312 16.757812 12.28125 17.449219 11.878906 C 18.820312 11.082031 18.96875 11.003906 19.011719 11.050781 C 19.03125 11.074219 19.019531 11.097656 18.96875 11.144531 Z M 20.863281 18.296875 C 20.820312 18.324219 20.660156 18.304688 18.273438 17.988281 C 17.65625 17.90625 16.855469 17.800781 16.492188 17.753906 C 15.027344 17.558594 14.589844 17.496094 14.574219 17.472656 C 14.550781 17.4375 14.550781 17.152344 14.574219 17.136719 C 14.59375 17.125 15.136719 17.214844 16.730469 17.5 C 17.292969 17.601562 18.332031 17.785156 19.035156 17.910156 C 20.765625 18.21875 20.933594 18.253906 20.863281 18.296875 Z M 13.402344 6.378906 C 13.355469 6.542969 13.15625 7.179688 12.964844 7.792969 C 12.769531 8.40625 12.421875 9.507812 12.191406 10.242188 C 11.648438 11.957031 11.585938 12.144531 11.5625 12.160156 C 11.539062 12.171875 11.292969 12.054688 11.269531 12.015625 C 11.25 11.988281 11.367188 11.65625 12.027344 9.851562 C 12.308594 9.082031 12.695312 8.019531 12.886719 7.492188 C 13.253906 6.488281 13.417969 6.066406 13.445312 6.050781 C 13.492188 6.023438 13.480469 6.101562 13.402344 6.378906 Z M 17.339844 15.34375 C 17.230469 15.410156 14.386719 15.875 14.359375 15.832031 C 14.328125 15.78125 14.277344 15.542969 14.292969 15.53125 C 14.34375 15.503906 17.082031 15.25 17.226562 15.261719 C 17.3125 15.269531 17.382812 15.320312 17.339844 15.34375 Z M 14.226562 11.058594 C 13.890625 11.597656 12.890625 13.128906 12.859375 13.148438 C 12.824219 13.167969 12.613281 12.972656 12.625 12.933594 C 12.632812 12.898438 13.671875 11.496094 14.074219 10.976562 C 14.226562 10.78125 14.375 10.601562 14.40625 10.585938 C 14.535156 10.503906 14.488281 10.628906 14.226562 11.058594 Z M 17.332031 20.140625 C 17.265625 20.179688 16.65625 19.992188 14.835938 19.375 C 14.550781 19.277344 14.3125 19.1875 14.300781 19.175781 C 14.292969 19.160156 14.304688 19.085938 14.324219 19.007812 L 14.363281 18.867188 L 14.457031 18.890625 C 14.507812 18.902344 14.8125 19.011719 15.128906 19.136719 C 15.445312 19.261719 15.875 19.433594 16.089844 19.519531 C 16.300781 19.601562 16.621094 19.730469 16.804688 19.808594 C 17.285156 20.015625 17.410156 20.09375 17.332031 20.140625 Z M 10.253906 8.578125 C 10.25 8.796875 10.230469 9 10.121094 10.046875 C 10.019531 11.023438 9.957031 11.535156 9.941406 11.542969 C 9.933594 11.546875 9.863281 11.535156 9.785156 11.523438 C 9.652344 11.496094 9.636719 11.488281 9.632812 11.429688 C 9.628906 11.394531 9.664062 11.121094 9.710938 10.824219 C 9.757812 10.527344 9.839844 10.011719 9.894531 9.679688 C 10 9.011719 10.140625 8.347656 10.179688 8.324219 C 10.230469 8.292969 10.257812 8.386719 10.253906 8.578125 Z M 19.375 24.816406 C 19.347656 24.835938 18.914062 24.574219 18.246094 24.140625 C 17.367188 23.570312 16.21875 22.820312 15.789062 22.539062 C 15.585938 22.402344 15.0625 22.058594 14.632812 21.773438 C 13.722656 21.175781 13.375 20.941406 13.363281 20.921875 C 13.351562 20.902344 13.515625 20.695312 13.535156 20.703125 C 13.613281 20.722656 18.742188 24.285156 19.199219 24.636719 C 19.375 24.773438 19.402344 24.800781 19.375 24.816406 Z M 7.058594 4.59375 C 7.128906 5.007812 7.171875 5.332031 7.398438 7.097656 C 7.738281 9.78125 7.929688 11.414062 7.910156 11.4375 C 7.886719 11.464844 7.660156 11.503906 7.648438 11.484375 C 7.628906 11.453125 7.335938 8.605469 7.132812 6.484375 C 6.996094 5.03125 6.945312 4.367188 6.976562 4.347656 C 7.003906 4.332031 7.023438 4.386719 7.058594 4.59375 Z M 5.855469 12.132812 C 5.851562 12.148438 5.789062 12.195312 5.722656 12.238281 L 5.59375 12.3125 L 5.066406 11.414062 C 4.496094 10.429688 3.90625 9.386719 3.785156 9.140625 C 3.714844 9 3.714844 8.984375 3.757812 8.964844 C 3.804688 8.945312 3.820312 8.960938 3.980469 9.195312 C 4.148438 9.445312 4.855469 10.539062 5.519531 11.574219 C 5.707031 11.867188 5.855469 12.121094 5.855469 12.132812 Z M 12.726562 23.507812 C 12.984375 23.953125 13.308594 24.527344 13.449219 24.785156 C 13.585938 25.042969 13.734375 25.308594 13.773438 25.375 C 13.824219 25.457031 13.84375 25.507812 13.828125 25.523438 C 13.773438 25.59375 13.734375 25.550781 13.492188 25.199219 C 13.214844 24.789062 12.179688 23.171875 11.882812 22.679688 L 11.679688 22.347656 L 11.953125 22.199219 L 12.105469 22.449219 C 12.191406 22.582031 12.46875 23.058594 12.726562 23.507812 Z M 9.945312 23.328125 C 10.132812 25.125 10.398438 27.8125 10.5 28.917969 C 10.582031 29.84375 10.597656 30.144531 10.554688 30.144531 C 10.539062 30.144531 10.527344 30.132812 10.527344 30.125 C 10.527344 30.113281 10.5 29.953125 10.46875 29.769531 C 10.410156 29.421875 10.105469 27.089844 9.84375 24.941406 C 9.640625 23.253906 9.621094 23.066406 9.644531 23.050781 C 9.667969 23.039062 9.910156 23.003906 9.910156 23.015625 C 9.914062 23.019531 9.929688 23.160156 9.945312 23.328125 Z M 4.121094 13.691406 C 4.085938 13.738281 4.046875 13.785156 4.03125 13.792969 C 4.015625 13.800781 3.898438 13.734375 3.773438 13.648438 C 3.644531 13.558594 3.167969 13.230469 2.714844 12.917969 C 1.660156 12.195312 -1.019531 10.332031 -1.3125 10.121094 C -1.652344 9.875 -1.839844 9.71875 -1.828125 9.695312 C -1.804688 9.648438 -1.277344 9.980469 0.808594 11.34375 C 2.589844 12.511719 4.148438 13.546875 4.167969 13.578125 C 4.179688 13.59375 4.15625 13.644531 4.121094 13.691406 Z M 3.226562 15.492188 C 3.203125 15.570312 3.171875 15.636719 3.15625 15.636719 C 3.117188 15.636719 2.636719 15.453125 1.820312 15.132812 C 0.570312 14.636719 0.167969 14.457031 0.183594 14.390625 C 0.195312 14.34375 0.402344 14.375 0.707031 14.46875 C 1.339844 14.660156 3.246094 15.304688 3.261719 15.332031 C 3.265625 15.335938 3.25 15.410156 3.226562 15.492188 Z M 7.894531 23.3125 C 7.800781 23.980469 7.539062 25.550781 7.472656 25.839844 C 7.363281 26.316406 7.289062 26.3125 7.304688 25.835938 C 7.316406 25.382812 7.574219 23.003906 7.613281 22.980469 C 7.640625 22.964844 7.910156 23.003906 7.921875 23.023438 C 7.929688 23.03125 7.914062 23.164062 7.894531 23.3125 Z M 6.074219 23.136719 C 5.949219 23.488281 5.6875 24.210938 5.492188 24.742188 C 5.296875 25.273438 4.945312 26.242188 4.707031 26.886719 C 4.242188 28.164062 4.128906 28.453125 4.09375 28.441406 C 4.054688 28.433594 4.125 28.183594 4.433594 27.199219 C 4.601562 26.671875 4.886719 25.769531 5.066406 25.1875 C 5.480469 23.878906 5.769531 22.964844 5.886719 22.609375 C 5.988281 22.304688 5.976562 22.3125 6.183594 22.429688 L 6.300781 22.496094 L 6.074219 23.132812 Z M 2.992188 17.195312 C 2.992188 17.277344 2.984375 17.355469 2.972656 17.363281 C 2.945312 17.378906 2.25 17.261719 0.558594 16.960938 C -0.0273438 16.855469 -0.976562 16.683594 -1.546875 16.585938 C -2.914062 16.34375 -3.289062 16.269531 -3.308594 16.234375 C -3.34375 16.175781 -3.230469 16.1875 -1.460938 16.421875 C 2.601562 16.957031 2.957031 17.003906 2.980469 17.027344 C 2.984375 17.035156 2.992188 17.109375 2.992188 17.195312 Z M 4.214844 22.550781 C 3.351562 23.707031 3.148438 23.960938 3.097656 23.949219 C 3.078125 23.945312 3.058594 23.925781 3.058594 23.90625 C 3.058594 23.820312 4.664062 21.339844 4.710938 21.355469 C 4.746094 21.367188 4.886719 21.5 4.917969 21.546875 C 4.929688 21.570312 4.734375 21.851562 4.214844 22.550781 Z M 3.242188 18.847656 C 3.261719 18.90625 3.265625 18.960938 3.25 18.96875 C 3.222656 18.984375 1.175781 19.191406 0.699219 19.226562 C 0.257812 19.257812 0.121094 19.238281 0.246094 19.160156 C 0.320312 19.117188 0.898438 19.007812 2.117188 18.816406 C 3.269531 18.632812 3.175781 18.628906 3.242188 18.847656 Z M 2.984375 20.953125 C 1.097656 22.058594 -1.28125 23.425781 -1.363281 23.457031 C -1.414062 23.472656 -1.457031 23.472656 -1.46875 23.453125 C -1.5 23.402344 -1.332031 23.289062 0.00390625 22.445312 C 0.683594 22.019531 1.796875 21.316406 2.472656 20.886719 C 3.152344 20.460938 3.722656 20.105469 3.742188 20.101562 C 3.765625 20.097656 3.804688 20.140625 3.863281 20.242188 L 3.953125 20.386719 Z M 2.984375 20.953125 " fill-opacity="1" fill-rule="evenodd"/></g></g></g></g></g></g></g></g><g clip-path="url(#304509e6d9)"><g mask="url(#2005d5a61b)"><g transform="matrix(1, 0, 0, 1, 7, 0.000000000000005692)"><g clip-path="url(#7873456ab1)"><g clip-path="url(#6f194c8fc0)"><g clip-path="url(#0c324ef637)"><g clip-path="url(#aea7352c66)"><g clip-path="url(#7859c4cbc9)"><path fill="#e25d5d" d="M 5.414062 18.207031 C 5.523438 18.136719 8.929688 16.636719 10.085938 16.148438 L 11.03125 15.75 L 11.101562 15.894531 C 11.152344 16 11.160156 16.042969 11.140625 16.0625 C 11.125 16.078125 10.496094 16.332031 9.746094 16.628906 C 8.996094 16.925781 7.769531 17.410156 7.023438 17.707031 C 5.546875 18.292969 5.390625 18.347656 5.355469 18.292969 C 5.335938 18.269531 5.355469 18.246094 5.414062 18.207031 Z M 4.601562 10.855469 C 4.652344 10.832031 4.804688 10.875 7.121094 11.542969 C 7.714844 11.714844 8.488281 11.941406 8.84375 12.042969 C 10.265625 12.449219 10.6875 12.578125 10.699219 12.605469 C 10.71875 12.644531 10.675781 12.925781 10.648438 12.9375 C 10.628906 12.945312 10.105469 12.773438 8.570312 12.253906 C 8.027344 12.070312 7.03125 11.734375 6.351562 11.507812 C 4.6875 10.945312 4.523438 10.886719 4.601562 10.855469 Z M 10.207031 23.75 C 10.277344 23.59375 10.566406 22.992188 10.851562 22.414062 C 11.132812 21.839844 11.640625 20.800781 11.980469 20.109375 C 12.769531 18.492188 12.859375 18.320312 12.886719 18.308594 C 12.910156 18.296875 13.136719 18.453125 13.15625 18.492188 C 13.167969 18.523438 13.003906 18.835938 12.082031 20.519531 C 11.691406 21.238281 11.148438 22.230469 10.882812 22.722656 C 10.367188 23.664062 10.144531 24.054688 10.113281 24.070312 C 10.0625 24.089844 10.085938 24.011719 10.207031 23.75 Z M 7.644531 14.296875 C 7.765625 14.25 10.644531 14.210938 10.664062 14.257812 C 10.6875 14.3125 10.707031 14.554688 10.6875 14.5625 C 10.632812 14.585938 7.886719 14.429688 7.746094 14.394531 C 7.664062 14.375 7.601562 14.316406 7.644531 14.296875 Z M 10.089844 19 C 10.5 18.515625 11.714844 17.152344 11.753906 17.136719 C 11.785156 17.121094 11.964844 17.34375 11.949219 17.382812 C 11.9375 17.417969 10.703125 18.652344 10.226562 19.101562 C 10.046875 19.273438 9.871094 19.425781 9.839844 19.441406 C 9.699219 19.5 9.761719 19.382812 10.089844 19 Z M 8.371094 9.554688 C 8.4375 9.527344 9.015625 9.804688 10.722656 10.683594 C 10.992188 10.820312 11.214844 10.945312 11.222656 10.960938 C 11.226562 10.976562 11.207031 11.050781 11.175781 11.125 L 11.117188 11.257812 L 11.027344 11.222656 C 10.976562 11.203125 10.695312 11.046875 10.398438 10.875 C 10.105469 10.703125 9.703125 10.46875 9.507812 10.355469 C 9.308594 10.242188 9.011719 10.066406 8.84375 9.960938 C 8.398438 9.6875 8.285156 9.589844 8.371094 9.554688 Z M 13.648438 22.042969 C 13.683594 21.824219 13.734375 21.628906 13.996094 20.613281 C 14.242188 19.660156 14.378906 19.164062 14.398438 19.160156 C 14.402344 19.15625 14.472656 19.175781 14.550781 19.203125 C 14.675781 19.246094 14.6875 19.257812 14.6875 19.316406 C 14.683594 19.351562 14.609375 19.617188 14.515625 19.902344 C 14.425781 20.191406 14.269531 20.6875 14.167969 21.007812 C 13.960938 21.652344 13.722656 22.289062 13.679688 22.304688 C 13.628906 22.328125 13.617188 22.234375 13.648438 22.042969 Z M 7.046875 4.625 C 7.074219 4.613281 7.464844 4.9375 8.0625 5.464844 C 8.84375 6.160156 9.871094 7.070312 10.25 7.414062 C 10.433594 7.578125 10.898438 7.996094 11.28125 8.339844 C 12.09375 9.070312 12.402344 9.351562 12.410156 9.375 C 12.417969 9.394531 12.226562 9.574219 12.207031 9.566406 C 12.132812 9.535156 7.589844 5.246094 7.191406 4.832031 C 7.039062 4.671875 7.015625 4.640625 7.046875 4.625 Z M 16.214844 26.457031 C 16.203125 26.039062 16.210938 25.710938 16.25 23.929688 C 16.316406 21.230469 16.367188 19.585938 16.390625 19.5625 C 16.417969 19.539062 16.648438 19.535156 16.65625 19.558594 C 16.671875 19.589844 16.535156 22.453125 16.417969 24.578125 C 16.339844 26.035156 16.289062 26.699219 16.257812 26.714844 C 16.226562 26.726562 16.21875 26.671875 16.214844 26.457031 Z M 18.527344 19.179688 C 18.53125 19.167969 18.597656 19.132812 18.671875 19.101562 L 18.8125 19.042969 L 19.195312 20.011719 C 19.617188 21.070312 20.042969 22.1875 20.125 22.449219 C 20.175781 22.601562 20.175781 22.613281 20.128906 22.628906 C 20.078125 22.640625 20.066406 22.625 19.945312 22.367188 C 19.8125 22.09375 19.277344 20.90625 18.773438 19.785156 C 18.632812 19.464844 18.523438 19.195312 18.527344 19.179688 Z M 13.421875 6.914062 C 13.234375 6.433594 13 5.816406 12.902344 5.542969 C 12.800781 5.265625 12.695312 4.980469 12.667969 4.910156 C 12.628906 4.820312 12.621094 4.769531 12.636719 4.753906 C 12.699219 4.695312 12.734375 4.738281 12.917969 5.125 C 13.132812 5.574219 13.914062 7.328125 14.136719 7.855469 L 14.285156 8.214844 L 13.996094 8.320312 L 13.878906 8.050781 C 13.816406 7.90625 13.613281 7.394531 13.421875 6.914062 Z M 16.148438 7.503906 C 16.230469 5.699219 16.367188 3 16.433594 1.894531 C 16.488281 0.964844 16.519531 0.667969 16.558594 0.671875 C 16.574219 0.675781 16.585938 0.6875 16.585938 0.699219 C 16.582031 0.707031 16.585938 0.871094 16.589844 1.054688 C 16.597656 1.40625 16.546875 3.757812 16.488281 5.921875 C 16.4375 7.621094 16.429688 7.8125 16.40625 7.820312 C 16.378906 7.832031 16.136719 7.828125 16.132812 7.820312 C 16.132812 7.816406 16.140625 7.671875 16.148438 7.503906 Z M 20.472656 17.902344 C 20.515625 17.859375 20.5625 17.820312 20.574219 17.8125 C 20.589844 17.804688 20.699219 17.890625 20.8125 17.996094 C 20.925781 18.101562 21.347656 18.496094 21.75 18.871094 C 22.683594 19.746094 25.058594 21.984375 25.3125 22.238281 C 25.613281 22.535156 25.773438 22.714844 25.761719 22.738281 C 25.730469 22.777344 25.257812 22.375 23.398438 20.714844 C 21.808594 19.296875 20.421875 18.039062 20.410156 18.007812 C 20.402344 17.988281 20.429688 17.941406 20.472656 17.902344 Z M 21.625 16.253906 C 21.660156 16.179688 21.703125 16.117188 21.714844 16.121094 C 21.753906 16.125 22.203125 16.378906 22.960938 16.816406 C 24.125 17.492188 24.496094 17.734375 24.46875 17.792969 C 24.453125 17.839844 24.253906 17.777344 23.964844 17.640625 C 23.367188 17.355469 21.578125 16.433594 21.566406 16.40625 C 21.5625 16.398438 21.589844 16.332031 21.625 16.253906 Z M 18.175781 7.824219 C 18.367188 7.179688 18.859375 5.664062 18.96875 5.386719 C 19.148438 4.933594 19.21875 4.945312 19.132812 5.417969 C 19.054688 5.863281 18.441406 8.175781 18.402344 8.195312 C 18.371094 8.207031 18.113281 8.128906 18.101562 8.105469 C 18.097656 8.097656 18.132812 7.96875 18.175781 7.824219 Z M 19.945312 8.269531 C 20.125 7.941406 20.492188 7.265625 20.761719 6.769531 C 21.035156 6.269531 21.527344 5.367188 21.859375 4.761719 C 22.507812 3.570312 22.664062 3.304688 22.695312 3.316406 C 22.730469 3.332031 22.628906 3.566406 22.175781 4.496094 C 21.933594 4.992188 21.515625 5.84375 21.25 6.390625 C 20.644531 7.625 20.222656 8.484375 20.054688 8.820312 C 19.910156 9.105469 19.921875 9.101562 19.734375 8.953125 L 19.625 8.871094 L 19.949219 8.273438 Z M 22.109375 14.605469 C 22.121094 14.519531 22.140625 14.445312 22.15625 14.441406 C 22.183594 14.429688 22.855469 14.648438 24.480469 15.199219 C 25.046875 15.390625 25.960938 15.699219 26.507812 15.882812 C 27.824219 16.324219 28.183594 16.457031 28.199219 16.492188 C 28.226562 16.554688 28.113281 16.527344 26.398438 16.03125 C 22.460938 14.898438 22.117188 14.796875 22.097656 14.769531 C 22.09375 14.761719 22.097656 14.6875 22.109375 14.605469 Z M 21.699219 9.125 C 22.722656 8.113281 22.964844 7.890625 23.011719 7.910156 C 23.03125 7.917969 23.046875 7.9375 23.042969 7.957031 C 23.03125 8.042969 21.074219 10.253906 21.03125 10.234375 C 21 10.21875 20.875 10.0625 20.855469 10.015625 C 20.84375 9.988281 21.082031 9.738281 21.699219 9.125 Z M 22.105469 12.933594 C 22.097656 12.871094 22.101562 12.816406 22.121094 12.8125 C 22.148438 12.796875 24.207031 12.898438 24.679688 12.9375 C 25.121094 12.972656 25.253906 13.011719 25.117188 13.066406 C 25.039062 13.101562 24.449219 13.121094 23.21875 13.132812 C 22.050781 13.140625 22.144531 13.15625 22.105469 12.933594 Z M 22.675781 10.890625 C 24.707031 10.078125 27.265625 9.078125 27.351562 9.0625 C 27.402344 9.050781 27.445312 9.058594 27.453125 9.082031 C 27.476562 9.132812 27.292969 9.222656 25.84375 9.855469 C 25.109375 10.179688 23.90625 10.707031 23.171875 11.027344 C 22.4375 11.351562 21.824219 11.617188 21.800781 11.617188 C 21.777344 11.617188 21.746094 11.570312 21.699219 11.460938 L 21.636719 11.304688 Z M 22.675781 10.890625 " fill-opacity="1" fill-rule="evenodd"/></g></g></g></g></g></g></g></g></svg>